<?xml version="1.0" encoding="UTF-8" standalone="no"?>
<!DOCTYPE svg PUBLIC "-//W3C//DTD SVG 1.1//EN"
 "http://www.w3.org/Graphics/SVG/1.1/DTD/svg11.dtd">
<!-- Generated by graphviz version 2.30.1 (20130706.2129)
 -->
<!-- Title: controllers_diagram Pages: 1 -->
<svg width="955pt" height="1213pt"
 viewBox="0.00 0.00 954.90 1212.82" xmlns="http://www.w3.org/2000/svg" xmlns:xlink="http://www.w3.org/1999/xlink">
<g id="graph0" class="graph" transform="scale(1 1) rotate(0) translate(4 1208.82)">
<title>controllers_diagram</title>
<polygon fill="white" stroke="white" points="-4,5 -4,-1208.82 951.899,-1208.82 951.899,5 -4,5"/>
<!-- _diagram_info -->
<g id="node1" class="node"><title>_diagram_info</title>
<text text-anchor="start" x="748" y="-1031" font-family="Times,serif" font-size="13.00">Controllers diagram</text>
<text text-anchor="start" x="748" y="-1015.4" font-family="Times,serif" font-size="13.00">Date: Oct 29 2014 &#45; 18:36</text>
<text text-anchor="start" x="748" y="-999.8" font-family="Times,serif" font-size="13.00">Migration version: 20141023110623</text>
<text text-anchor="start" x="748" y="-984.2" font-family="Times,serif" font-size="13.00">Generated by RailRoady 1.1.2</text>
<text text-anchor="start" x="748" y="-968.6" font-family="Times,serif" font-size="13.00">http://railroady.prestonlee.com</text>
</g>
<!-- ApplicationController -->
<g id="node2" class="node"><title>ApplicationController</title>
<path fill="none" stroke="black" d="M312.933,-411.313C312.933,-411.313 428.574,-411.313 428.574,-411.313 434.574,-411.313 440.574,-417.313 440.574,-423.313 440.574,-423.313 440.574,-496.913 440.574,-496.913 440.574,-502.913 434.574,-508.913 428.574,-508.913 428.574,-508.913 312.933,-508.913 312.933,-508.913 306.933,-508.913 300.933,-502.913 300.933,-496.913 300.933,-496.913 300.933,-423.313 300.933,-423.313 300.933,-417.313 306.933,-411.313 312.933,-411.313"/>
<text text-anchor="middle" x="370.754" y="-490.913" font-family="Times,serif" font-size="14.00">ApplicationController</text>
<polyline fill="none" stroke="black" points="300.933,-484.113 440.574,-484.113 "/>
<polyline fill="none" stroke="black" points="300.933,-460.113 440.574,-460.113 "/>
<polyline fill="none" stroke="black" points="300.933,-436.113 440.574,-436.113 "/>
<text text-anchor="start" x="308.933" y="-418.113" font-family="Times,serif" font-size="14.00">_layout</text>
</g>
<!-- ComponentsController -->
<g id="node3" class="node"><title>ComponentsController</title>
<path fill="none" stroke="black" d="M542.454,-618.862C542.454,-618.862 662.778,-618.862 662.778,-618.862 668.778,-618.862 674.778,-624.862 674.778,-630.862 674.778,-630.862 674.778,-856.462 674.778,-856.462 674.778,-862.462 668.778,-868.462 662.778,-868.462 662.778,-868.462 542.454,-868.462 542.454,-868.462 536.454,-868.462 530.454,-862.462 530.454,-856.462 530.454,-856.462 530.454,-630.862 530.454,-630.862 530.454,-624.862 536.454,-618.862 542.454,-618.862"/>
<text text-anchor="middle" x="602.616" y="-850.462" font-family="Times,serif" font-size="14.00">ComponentsController</text>
<polyline fill="none" stroke="black" points="530.454,-843.662 674.778,-843.662 "/>
<text text-anchor="start" x="538.454" y="-825.662" font-family="Times,serif" font-size="14.00">create</text>
<text text-anchor="start" x="538.454" y="-808.862" font-family="Times,serif" font-size="14.00">destroy</text>
<text text-anchor="start" x="538.454" y="-792.062" font-family="Times,serif" font-size="14.00">edit</text>
<text text-anchor="start" x="538.454" y="-775.262" font-family="Times,serif" font-size="14.00">index</text>
<text text-anchor="start" x="538.454" y="-758.462" font-family="Times,serif" font-size="14.00">new</text>
<text text-anchor="start" x="538.454" y="-741.662" font-family="Times,serif" font-size="14.00">show</text>
<text text-anchor="start" x="538.454" y="-724.862" font-family="Times,serif" font-size="14.00">update</text>
<polyline fill="none" stroke="black" points="530.454,-718.062 674.778,-718.062 "/>
<polyline fill="none" stroke="black" points="530.454,-694.062 674.778,-694.062 "/>
<text text-anchor="start" x="538.454" y="-676.062" font-family="Times,serif" font-size="14.00">_layout</text>
<text text-anchor="start" x="538.454" y="-659.262" font-family="Times,serif" font-size="14.00">component_params</text>
<text text-anchor="start" x="538.454" y="-642.462" font-family="Times,serif" font-size="14.00">set_component</text>
<text text-anchor="start" x="538.454" y="-625.662" font-family="Times,serif" font-size="14.00">set_project</text>
</g>
<!-- ApplicationController&#45;&gt;ComponentsController -->
<g id="edge1" class="edge"><title>ApplicationController&#45;&gt;ComponentsController</title>
<path fill="none" stroke="black" d="M410.876,-509.18C443.668,-549.282 490.871,-607.007 530.235,-655.146"/>
</g>
<!-- EnvironmentsController -->
<g id="node4" class="node"><title>EnvironmentsController</title>
<path fill="none" stroke="black" d="M87.2679,-0.5C87.2679,-0.5 215.358,-0.5 215.358,-0.5 221.358,-0.5 227.358,-6.5 227.358,-12.5 227.358,-12.5 227.358,-238.1 227.358,-238.1 227.358,-244.1 221.358,-250.1 215.358,-250.1 215.358,-250.1 87.2679,-250.1 87.2679,-250.1 81.2679,-250.1 75.2679,-244.1 75.2679,-238.1 75.2679,-238.1 75.2679,-12.5 75.2679,-12.5 75.2679,-6.5 81.2679,-0.5 87.2679,-0.5"/>
<text text-anchor="middle" x="151.313" y="-232.1" font-family="Times,serif" font-size="14.00">EnvironmentsController</text>
<polyline fill="none" stroke="black" points="75.2679,-225.3 227.358,-225.3 "/>
<text text-anchor="start" x="83.2679" y="-207.3" font-family="Times,serif" font-size="14.00">create</text>
<text text-anchor="start" x="83.2679" y="-190.5" font-family="Times,serif" font-size="14.00">destroy</text>
<text text-anchor="start" x="83.2679" y="-173.7" font-family="Times,serif" font-size="14.00">edit</text>
<text text-anchor="start" x="83.2679" y="-156.9" font-family="Times,serif" font-size="14.00">index</text>
<text text-anchor="start" x="83.2679" y="-140.1" font-family="Times,serif" font-size="14.00">new</text>
<text text-anchor="start" x="83.2679" y="-123.3" font-family="Times,serif" font-size="14.00">show</text>
<text text-anchor="start" x="83.2679" y="-106.5" font-family="Times,serif" font-size="14.00">update</text>
<polyline fill="none" stroke="black" points="75.2679,-99.7 227.358,-99.7 "/>
<polyline fill="none" stroke="black" points="75.2679,-75.7 227.358,-75.7 "/>
<text text-anchor="start" x="83.2679" y="-57.7" font-family="Times,serif" font-size="14.00">_layout</text>
<text text-anchor="start" x="83.2679" y="-40.9" font-family="Times,serif" font-size="14.00">environment_params</text>
<text text-anchor="start" x="83.2679" y="-24.1" font-family="Times,serif" font-size="14.00">set_environment</text>
<text text-anchor="start" x="83.2679" y="-7.3" font-family="Times,serif" font-size="14.00">set_project</text>
</g>
<!-- ApplicationController&#45;&gt;EnvironmentsController -->
<g id="edge2" class="edge"><title>ApplicationController&#45;&gt;EnvironmentsController</title>
<path fill="none" stroke="black" d="M338.61,-411.07C309.503,-366.66 265.484,-299.497 227.432,-241.439"/>
</g>
<!-- HostsController -->
<g id="node5" class="node"><title>HostsController</title>
<path fill="none" stroke="black" d="M115.36,-622.625C115.36,-622.625 200.67,-622.625 200.67,-622.625 206.67,-622.625 212.67,-628.625 212.67,-634.625 212.67,-634.625 212.67,-877.025 212.67,-877.025 212.67,-883.025 206.67,-889.025 200.67,-889.025 200.67,-889.025 115.36,-889.025 115.36,-889.025 109.36,-889.025 103.36,-883.025 103.36,-877.025 103.36,-877.025 103.36,-634.625 103.36,-634.625 103.36,-628.625 109.36,-622.625 115.36,-622.625"/>
<text text-anchor="middle" x="158.015" y="-871.025" font-family="Times,serif" font-size="14.00">HostsController</text>
<polyline fill="none" stroke="black" points="103.36,-864.225 212.67,-864.225 "/>
<text text-anchor="start" x="111.36" y="-846.225" font-family="Times,serif" font-size="14.00">create</text>
<text text-anchor="start" x="111.36" y="-829.425" font-family="Times,serif" font-size="14.00">destroy</text>
<text text-anchor="start" x="111.36" y="-812.625" font-family="Times,serif" font-size="14.00">edit</text>
<text text-anchor="start" x="111.36" y="-795.825" font-family="Times,serif" font-size="14.00">index</text>
<text text-anchor="start" x="111.36" y="-779.025" font-family="Times,serif" font-size="14.00">new</text>
<text text-anchor="start" x="111.36" y="-762.225" font-family="Times,serif" font-size="14.00">show</text>
<text text-anchor="start" x="111.36" y="-745.425" font-family="Times,serif" font-size="14.00">toggle</text>
<text text-anchor="start" x="111.36" y="-728.625" font-family="Times,serif" font-size="14.00">update</text>
<polyline fill="none" stroke="black" points="103.36,-721.825 212.67,-721.825 "/>
<polyline fill="none" stroke="black" points="103.36,-697.825 212.67,-697.825 "/>
<text text-anchor="start" x="111.36" y="-679.825" font-family="Times,serif" font-size="14.00">_layout</text>
<text text-anchor="start" x="111.36" y="-663.025" font-family="Times,serif" font-size="14.00">host_params</text>
<text text-anchor="start" x="111.36" y="-646.225" font-family="Times,serif" font-size="14.00">set_environment</text>
<text text-anchor="start" x="111.36" y="-629.425" font-family="Times,serif" font-size="14.00">set_host</text>
</g>
<!-- ApplicationController&#45;&gt;HostsController -->
<g id="edge3" class="edge"><title>ApplicationController&#45;&gt;HostsController</title>
<path fill="none" stroke="black" d="M335.624,-508.944C302.226,-555.368 251.486,-625.898 212.779,-679.702"/>
</g>
<!-- InstancesController -->
<g id="node6" class="node"><title>InstancesController</title>
<path fill="none" stroke="black" d="M534.686,-887.52C534.686,-887.52 636.321,-887.52 636.321,-887.52 642.321,-887.52 648.321,-893.52 648.321,-899.52 648.321,-899.52 648.321,-1192.32 648.321,-1192.32 648.321,-1198.32 642.321,-1204.32 636.321,-1204.32 636.321,-1204.32 534.686,-1204.32 534.686,-1204.32 528.686,-1204.32 522.686,-1198.32 522.686,-1192.32 522.686,-1192.32 522.686,-899.52 522.686,-899.52 522.686,-893.52 528.686,-887.52 534.686,-887.52"/>
<text text-anchor="middle" x="585.503" y="-1186.32" font-family="Times,serif" font-size="14.00">InstancesController</text>
<polyline fill="none" stroke="black" points="522.686,-1179.52 648.321,-1179.52 "/>
<text text-anchor="start" x="530.686" y="-1161.52" font-family="Times,serif" font-size="14.00">create</text>
<text text-anchor="start" x="530.686" y="-1144.72" font-family="Times,serif" font-size="14.00">destroy</text>
<text text-anchor="start" x="530.686" y="-1127.92" font-family="Times,serif" font-size="14.00">edit</text>
<text text-anchor="start" x="530.686" y="-1111.12" font-family="Times,serif" font-size="14.00">index</text>
<text text-anchor="start" x="530.686" y="-1094.32" font-family="Times,serif" font-size="14.00">new</text>
<text text-anchor="start" x="530.686" y="-1077.52" font-family="Times,serif" font-size="14.00">run</text>
<text text-anchor="start" x="530.686" y="-1060.72" font-family="Times,serif" font-size="14.00">show</text>
<text text-anchor="start" x="530.686" y="-1043.92" font-family="Times,serif" font-size="14.00">stop</text>
<text text-anchor="start" x="530.686" y="-1027.12" font-family="Times,serif" font-size="14.00">update</text>
<polyline fill="none" stroke="black" points="522.686,-1020.32 648.321,-1020.32 "/>
<polyline fill="none" stroke="black" points="522.686,-996.32 648.321,-996.32 "/>
<text text-anchor="start" x="530.686" y="-978.32" font-family="Times,serif" font-size="14.00">_layout</text>
<text text-anchor="start" x="530.686" y="-961.52" font-family="Times,serif" font-size="14.00">instance_params</text>
<text text-anchor="start" x="530.686" y="-944.72" font-family="Times,serif" font-size="14.00">set_component</text>
<text text-anchor="start" x="530.686" y="-927.92" font-family="Times,serif" font-size="14.00">set_environment</text>
<text text-anchor="start" x="530.686" y="-911.12" font-family="Times,serif" font-size="14.00">set_instance</text>
<text text-anchor="start" x="530.686" y="-894.32" font-family="Times,serif" font-size="14.00">set_instances</text>
</g>
<!-- ApplicationController&#45;&gt;InstancesController -->
<g id="edge4" class="edge"><title>ApplicationController&#45;&gt;InstancesController</title>
<path fill="none" stroke="black" d="M388.694,-509.051C418.86,-591.34 480.995,-760.837 527.424,-887.49"/>
</g>
<!-- ProjectsController -->
<g id="node7" class="node"><title>ProjectsController</title>
<path fill="none" stroke="black" d="M101.274,-925.369C101.274,-925.369 195.923,-925.369 195.923,-925.369 201.923,-925.369 207.923,-931.369 207.923,-937.369 207.923,-937.369 207.923,-1162.97 207.923,-1162.97 207.923,-1168.97 201.923,-1174.97 195.923,-1174.97 195.923,-1174.97 101.274,-1174.97 101.274,-1174.97 95.2742,-1174.97 89.2742,-1168.97 89.2742,-1162.97 89.2742,-1162.97 89.2742,-937.369 89.2742,-937.369 89.2742,-931.369 95.2742,-925.369 101.274,-925.369"/>
<text text-anchor="middle" x="148.598" y="-1156.97" font-family="Times,serif" font-size="14.00">ProjectsController</text>
<polyline fill="none" stroke="black" points="89.2742,-1150.17 207.923,-1150.17 "/>
<text text-anchor="start" x="97.2742" y="-1132.17" font-family="Times,serif" font-size="14.00">create</text>
<text text-anchor="start" x="97.2742" y="-1115.37" font-family="Times,serif" font-size="14.00">destroy</text>
<text text-anchor="start" x="97.2742" y="-1098.57" font-family="Times,serif" font-size="14.00">edit</text>
<text text-anchor="start" x="97.2742" y="-1081.77" font-family="Times,serif" font-size="14.00">index</text>
<text text-anchor="start" x="97.2742" y="-1064.97" font-family="Times,serif" font-size="14.00">new</text>
<text text-anchor="start" x="97.2742" y="-1048.17" font-family="Times,serif" font-size="14.00">show</text>
<text text-anchor="start" x="97.2742" y="-1031.37" font-family="Times,serif" font-size="14.00">toggle</text>
<text text-anchor="start" x="97.2742" y="-1014.57" font-family="Times,serif" font-size="14.00">update</text>
<polyline fill="none" stroke="black" points="89.2742,-1007.77 207.923,-1007.77 "/>
<polyline fill="none" stroke="black" points="89.2742,-983.769 207.923,-983.769 "/>
<text text-anchor="start" x="97.2742" y="-965.769" font-family="Times,serif" font-size="14.00">_layout</text>
<text text-anchor="start" x="97.2742" y="-948.969" font-family="Times,serif" font-size="14.00">project_params</text>
<text text-anchor="start" x="97.2742" y="-932.169" font-family="Times,serif" font-size="14.00">set_project</text>
</g>
<!-- ApplicationController&#45;&gt;ProjectsController -->
<g id="edge5" class="edge"><title>ApplicationController&#45;&gt;ProjectsController</title>
<path fill="none" stroke="black" d="M354.254,-509.06C326.895,-589.529 269.797,-754.582 215.87,-892.225 211.684,-902.909 207.236,-913.951 202.699,-925.003"/>
</g>
<!-- RegistriesController -->
<g id="node8" class="node"><title>RegistriesController</title>
<path fill="none" stroke="black" d="M12,-301.692C12,-301.692 117.538,-301.692 117.538,-301.692 123.538,-301.692 129.538,-307.692 129.538,-313.692 129.538,-313.692 129.538,-589.692 129.538,-589.692 129.538,-595.692 123.538,-601.692 117.538,-601.692 117.538,-601.692 12,-601.692 12,-601.692 6,-601.692 0,-595.692 0,-589.692 0,-589.692 0,-313.692 0,-313.692 0,-307.692 6,-301.692 12,-301.692"/>
<text text-anchor="middle" x="64.769" y="-583.692" font-family="Times,serif" font-size="14.00">RegistriesController</text>
<polyline fill="none" stroke="black" points="0,-576.892 129.538,-576.892 "/>
<text text-anchor="start" x="8" y="-558.892" font-family="Times,serif" font-size="14.00">create</text>
<text text-anchor="start" x="8" y="-542.092" font-family="Times,serif" font-size="14.00">destroy</text>
<text text-anchor="start" x="8" y="-525.292" font-family="Times,serif" font-size="14.00">edit</text>
<text text-anchor="start" x="8" y="-508.492" font-family="Times,serif" font-size="14.00">index</text>
<text text-anchor="start" x="8" y="-491.692" font-family="Times,serif" font-size="14.00">new</text>
<text text-anchor="start" x="8" y="-474.892" font-family="Times,serif" font-size="14.00">partial</text>
<text text-anchor="start" x="8" y="-458.092" font-family="Times,serif" font-size="14.00">refresh</text>
<text text-anchor="start" x="8" y="-441.292" font-family="Times,serif" font-size="14.00">show</text>
<text text-anchor="start" x="8" y="-424.492" font-family="Times,serif" font-size="14.00">toggle</text>
<text text-anchor="start" x="8" y="-407.692" font-family="Times,serif" font-size="14.00">update</text>
<polyline fill="none" stroke="black" points="0,-400.892 129.538,-400.892 "/>
<polyline fill="none" stroke="black" points="0,-376.892 129.538,-376.892 "/>
<text text-anchor="start" x="8" y="-358.892" font-family="Times,serif" font-size="14.00">_layout</text>
<text text-anchor="start" x="8" y="-342.092" font-family="Times,serif" font-size="14.00">registry_params</text>
<text text-anchor="start" x="8" y="-325.292" font-family="Times,serif" font-size="14.00">set_registries</text>
<text text-anchor="start" x="8" y="-308.492" font-family="Times,serif" font-size="14.00">set_registry</text>
</g>
<!-- ApplicationController&#45;&gt;RegistriesController -->
<g id="edge6" class="edge"><title>ApplicationController&#45;&gt;RegistriesController</title>
<path fill="none" stroke="black" d="M300.555,-458.181C249.122,-456.765 179.826,-454.858 129.679,-453.478"/>
</g>
<!-- ReleasesController -->
<g id="node9" class="node"><title>ReleasesController</title>
<path fill="none" stroke="black" d="M625.514,-306.128C625.514,-306.128 724.038,-306.128 724.038,-306.128 730.038,-306.128 736.038,-312.128 736.038,-318.128 736.038,-318.128 736.038,-543.728 736.038,-543.728 736.038,-549.728 730.038,-555.728 724.038,-555.728 724.038,-555.728 625.514,-555.728 625.514,-555.728 619.514,-555.728 613.514,-549.728 613.514,-543.728 613.514,-543.728 613.514,-318.128 613.514,-318.128 613.514,-312.128 619.514,-306.128 625.514,-306.128"/>
<text text-anchor="middle" x="674.776" y="-537.728" font-family="Times,serif" font-size="14.00">ReleasesController</text>
<polyline fill="none" stroke="black" points="613.514,-530.928 736.038,-530.928 "/>
<text text-anchor="start" x="621.514" y="-512.928" font-family="Times,serif" font-size="14.00">create</text>
<text text-anchor="start" x="621.514" y="-496.128" font-family="Times,serif" font-size="14.00">destroy</text>
<text text-anchor="start" x="621.514" y="-479.328" font-family="Times,serif" font-size="14.00">edit</text>
<text text-anchor="start" x="621.514" y="-462.528" font-family="Times,serif" font-size="14.00">index</text>
<text text-anchor="start" x="621.514" y="-445.728" font-family="Times,serif" font-size="14.00">new</text>
<text text-anchor="start" x="621.514" y="-428.928" font-family="Times,serif" font-size="14.00">show</text>
<text text-anchor="start" x="621.514" y="-412.128" font-family="Times,serif" font-size="14.00">update</text>
<polyline fill="none" stroke="black" points="613.514,-405.328 736.038,-405.328 "/>
<polyline fill="none" stroke="black" points="613.514,-381.328 736.038,-381.328 "/>
<text text-anchor="start" x="621.514" y="-363.328" font-family="Times,serif" font-size="14.00">_layout</text>
<text text-anchor="start" x="621.514" y="-346.528" font-family="Times,serif" font-size="14.00">release_params</text>
<text text-anchor="start" x="621.514" y="-329.728" font-family="Times,serif" font-size="14.00">set_project</text>
<text text-anchor="start" x="621.514" y="-312.928" font-family="Times,serif" font-size="14.00">set_release</text>
</g>
<!-- ApplicationController&#45;&gt;ReleasesController -->
<g id="edge7" class="edge"><title>ApplicationController&#45;&gt;ReleasesController</title>
<path fill="none" stroke="black" d="M440.884,-453.381C493.054,-448.373 563.565,-441.604 613.488,-436.812"/>
</g>
<!-- WelcomeController -->
<g id="node10" class="node"><title>WelcomeController</title>
<path fill="none" stroke="black" d="M532.688,-69.9484C532.688,-69.9484 634.753,-69.9484 634.753,-69.9484 640.753,-69.9484 646.753,-75.9484 646.753,-81.9484 646.753,-81.9484 646.753,-156.348 646.753,-156.348 646.753,-162.348 640.753,-168.348 634.753,-168.348 634.753,-168.348 532.688,-168.348 532.688,-168.348 526.688,-168.348 520.688,-162.348 520.688,-156.348 520.688,-156.348 520.688,-81.9484 520.688,-81.9484 520.688,-75.9484 526.688,-69.9484 532.688,-69.9484"/>
<text text-anchor="middle" x="583.721" y="-150.348" font-family="Times,serif" font-size="14.00">WelcomeController</text>
<polyline fill="none" stroke="black" points="520.688,-143.548 646.753,-143.548 "/>
<text text-anchor="start" x="528.688" y="-125.548" font-family="Times,serif" font-size="14.00">index</text>
<polyline fill="none" stroke="black" points="520.688,-118.748 646.753,-118.748 "/>
<polyline fill="none" stroke="black" points="520.688,-94.7484 646.753,-94.7484 "/>
<text text-anchor="start" x="528.688" y="-76.7484" font-family="Times,serif" font-size="14.00">_layout</text>
</g>
<!-- ApplicationController&#45;&gt;WelcomeController -->
<g id="edge8" class="edge"><title>ApplicationController&#45;&gt;WelcomeController</title>
<path fill="none" stroke="black" d="M401.267,-411.261C441.637,-346.628 512.404,-233.327 552.919,-168.463"/>
</g>
</g>
</svg>
