<?xml version="1.0" encoding="UTF-8" standalone="no"?>
<!DOCTYPE svg PUBLIC "-//W3C//DTD SVG 1.1//EN"
 "http://www.w3.org/Graphics/SVG/1.1/DTD/svg11.dtd">
<!-- Generated by graphviz version 2.30.1 (20130706.2129)
 -->
<!-- Title: models_diagram Pages: 1 -->
<svg width="437pt" height="382pt"
 viewBox="0.00 0.00 437.00 382.00" xmlns="http://www.w3.org/2000/svg" xmlns:xlink="http://www.w3.org/1999/xlink">
<g id="graph0" class="graph" transform="scale(1 1) rotate(0) translate(4 378)">
<title>models_diagram</title>
<polygon fill="white" stroke="white" points="-4,5 -4,-378 434,-378 434,5 -4,5"/>
<!-- _diagram_info -->
<g id="node1" class="node"><title>_diagram_info</title>
<text text-anchor="start" x="7.55029" y="-357" font-family="Times,serif" font-size="13.00">Models diagram</text>
<text text-anchor="start" x="7.55029" y="-341.4" font-family="Times,serif" font-size="13.00">Date: Nov 25 2014 &#45; 13:34</text>
<text text-anchor="start" x="7.55029" y="-325.8" font-family="Times,serif" font-size="13.00">Migration version: 20141023110623</text>
<text text-anchor="start" x="7.55029" y="-310.2" font-family="Times,serif" font-size="13.00">Generated by RailRoady 1.2.0</text>
<text text-anchor="start" x="7.55029" y="-294.6" font-family="Times,serif" font-size="13.00">http://railroady.prestonlee.com</text>
</g>
<!-- Background -->
<g id="node2" class="node"><title>Background</title>
<polygon fill="none" stroke="black" points="309.321,-349 224.679,-349 224.679,-313 309.321,-313 309.321,-349"/>
<text text-anchor="middle" x="267" y="-325.4" font-family="Times,serif" font-size="14.00">Background</text>
</g>
<!-- Component -->
<g id="node3" class="node"><title>Component</title>
<ellipse fill="none" stroke="black" cx="310" cy="-162" rx="56.1511" ry="18"/>
<text text-anchor="middle" x="310" y="-156.4" font-family="Times,serif" font-size="14.00">Component</text>
</g>
<!-- Release -->
<g id="node10" class="node"><title>Release</title>
<ellipse fill="none" stroke="black" cx="241" cy="-90" rx="41.0954" ry="18"/>
<text text-anchor="middle" x="241" y="-84.4" font-family="Times,serif" font-size="14.00">Release</text>
</g>
<!-- Component&#45;&gt;Release -->
<g id="edge1" class="edge"><title>Component&#45;&gt;Release</title>
<path fill="none" stroke="#bf32fc" d="M286.47,-137.129C279.273,-129.827 271.364,-121.804 264.189,-114.525"/>
<polygon fill="#bf32fc" stroke="#bf32fc" points="286.628,-137.289 290.443,-147.57 290.138,-140.85 293.648,-144.411 293.648,-144.411 293.648,-144.411 290.138,-140.85 296.853,-141.252 286.628,-137.289 286.628,-137.289"/>
<polygon fill="#bf32fc" stroke="#bf32fc" points="263.78,-114.11 259.965,-103.829 260.27,-110.549 256.76,-106.988 256.76,-106.988 256.76,-106.988 260.27,-110.549 253.555,-110.147 263.78,-114.11 263.78,-114.11"/>
</g>
<!-- Image -->
<g id="node6" class="node"><title>Image</title>
<ellipse fill="none" stroke="black" cx="394" cy="-90" rx="35.2475" ry="18"/>
<text text-anchor="middle" x="394" y="-84.4" font-family="Times,serif" font-size="14.00">Image</text>
</g>
<!-- Component&#45;&gt;Image -->
<g id="edge2" class="edge"><title>Component&#45;&gt;Image</title>
<path fill="none" stroke="#917e6d" d="M335.712,-139.573C346.096,-130.92 358.052,-120.956 368.423,-112.314"/>
<ellipse fill="none" stroke="#917e6d" cx="332.555" cy="-142.204" rx="4.00002" ry="4.00002"/>
<polygon fill="#917e6d" stroke="#917e6d" points="368.657,-112.119 379.22,-109.174 372.499,-108.918 376.34,-105.717 376.34,-105.717 376.34,-105.717 372.499,-108.918 373.459,-102.26 368.657,-112.119 368.657,-112.119"/>
</g>
<!-- Instance -->
<g id="node7" class="node"><title>Instance</title>
<ellipse fill="none" stroke="black" cx="172" cy="-18" rx="43.3141" ry="18"/>
<text text-anchor="middle" x="172" y="-12.4" font-family="Times,serif" font-size="14.00">Instance</text>
</g>
<!-- Component&#45;&gt;Instance -->
<g id="edge3" class="edge"><title>Component&#45;&gt;Instance</title>
<path fill="none" stroke="#35ded0" d="M310.541,-135.888C309.681,-116.473 305.558,-89.9634 291,-72 273.275,-50.1287 244.653,-36.9961 219.921,-29.2749"/>
<ellipse fill="none" stroke="#35ded0" cx="310.638" cy="-139.992" rx="4" ry="4"/>
<polygon fill="#35ded0" stroke="#35ded0" points="219.913,-29.2729 211.569,-22.1577 215.113,-27.8757 210.312,-26.4784 210.312,-26.4784 210.312,-26.4784 215.113,-27.8757 209.054,-30.7992 219.913,-29.2729 219.913,-29.2729"/>
</g>
<!-- Environment -->
<g id="node4" class="node"><title>Environment</title>
<ellipse fill="none" stroke="black" cx="137" cy="-162" rx="61.1861" ry="18"/>
<text text-anchor="middle" x="137" y="-156.4" font-family="Times,serif" font-size="14.00">Environment</text>
</g>
<!-- Host -->
<g id="node5" class="node"><title>Host</title>
<ellipse fill="none" stroke="black" cx="115" cy="-90" rx="28.9227" ry="18"/>
<text text-anchor="middle" x="115" y="-84.4" font-family="Times,serif" font-size="14.00">Host</text>
</g>
<!-- Environment&#45;&gt;Host -->
<g id="edge4" class="edge"><title>Environment&#45;&gt;Host</title>
<path fill="none" stroke="#6def77" d="M129.189,-136.146C127.296,-130.124 125.266,-123.664 123.349,-117.566"/>
<ellipse fill="none" stroke="#6def77" cx="130.475" cy="-140.239" rx="4.00001" ry="4.00001"/>
<polygon fill="#6def77" stroke="#6def77" points="123.275,-117.329 124.57,-106.44 121.776,-112.559 120.277,-107.789 120.277,-107.789 120.277,-107.789 121.776,-112.559 115.984,-109.138 123.275,-117.329 123.275,-117.329"/>
</g>
<!-- Environment&#45;&gt;Instance -->
<g id="edge5" class="edge"><title>Environment&#45;&gt;Instance</title>
<path fill="none" stroke="#76a342" d="M144.954,-136.188C147.668,-127.337 150.617,-117.265 153,-108 158.28,-87.4721 163.244,-64.0177 166.773,-46.3415"/>
<ellipse fill="none" stroke="#76a342" cx="143.739" cy="-140.096" rx="4.00001" ry="4.00001"/>
<polygon fill="#76a342" stroke="#76a342" points="166.846,-45.9722 173.191,-37.0283 167.81,-41.0662 168.775,-36.1601 168.775,-36.1601 168.775,-36.1601 167.81,-41.0662 164.36,-35.2919 166.846,-45.9722 166.846,-45.9722"/>
</g>
<!-- Host&#45;&gt;Instance -->
<g id="edge6" class="edge"><title>Host&#45;&gt;Instance</title>
<path fill="none" stroke="#9adf05" d="M132.876,-67.0469C138.983,-59.5466 145.85,-51.1135 152.107,-43.4303"/>
<ellipse fill="none" stroke="#9adf05" cx="130.176" cy="-70.363" rx="4.00002" ry="4.00002"/>
<polygon fill="#9adf05" stroke="#9adf05" points="152.277,-43.2216 162.08,-38.3086 155.434,-39.3444 158.591,-35.4672 158.591,-35.4672 158.591,-35.4672 155.434,-39.3444 155.102,-32.6257 152.277,-43.2216 152.277,-43.2216"/>
</g>
<!-- Project -->
<g id="node8" class="node"><title>Project</title>
<ellipse fill="none" stroke="black" cx="310" cy="-234" rx="38.0859" ry="18"/>
<text text-anchor="middle" x="310" y="-228.4" font-family="Times,serif" font-size="14.00">Project</text>
</g>
<!-- Project&#45;&gt;Environment -->
<g id="edge7" class="edge"><title>Project&#45;&gt;Environment</title>
<path fill="none" stroke="#df74a6" d="M274.058,-218.457C246.973,-207.498 209.697,-192.415 180.856,-180.745"/>
<ellipse fill="none" stroke="#df74a6" cx="278.112" cy="-220.097" rx="4.00001" ry="4.00001"/>
<polygon fill="#df74a6" stroke="#df74a6" points="180.696,-180.68 173.114,-172.758 176.061,-178.805 171.426,-176.929 171.426,-176.929 171.426,-176.929 176.061,-178.805 169.738,-181.101 180.696,-180.68 180.696,-180.68"/>
</g>
<!-- Project&#45;&gt;Release -->
<g id="edge8" class="edge"><title>Project&#45;&gt;Release</title>
<path fill="none" stroke="#2d5544" d="M278.465,-215.439C265.734,-206.583 252.339,-194.599 245,-180 235.418,-160.94 235,-136.582 236.653,-118.169"/>
<ellipse fill="none" stroke="#2d5544" cx="282.089" cy="-217.831" rx="4.00002" ry="4.00002"/>
<polygon fill="#2d5544" stroke="#2d5544" points="236.668,-118.034 242.282,-108.614 237.24,-113.066 237.812,-108.099 237.812,-108.099 237.812,-108.099 237.24,-113.066 233.341,-107.585 236.668,-118.034 236.668,-118.034"/>
</g>
<!-- Project&#45;&gt;Component -->
<g id="edge9" class="edge"><title>Project&#45;&gt;Component</title>
<path fill="none" stroke="#c7977c" d="M310,-207.64C310,-202.063 310,-196.132 310,-190.476"/>
<ellipse fill="none" stroke="#c7977c" cx="310" cy="-211.697" rx="4" ry="4"/>
<polygon fill="#c7977c" stroke="#c7977c" points="310,-190.104 314.5,-180.104 310,-185.104 310,-180.104 310,-180.104 310,-180.104 310,-185.104 305.5,-180.104 310,-190.104 310,-190.104"/>
</g>
<!-- Project&#45;&gt;Image -->
<g id="edge10" class="edge"><title>Project&#45;&gt;Image</title>
<path fill="none" stroke="#d39263" d="M340.135,-215.02C352.735,-206.025 366.416,-194.047 375,-180 386.363,-161.405 390.997,-137.011 392.855,-118.466"/>
<ellipse fill="none" stroke="#d39263" cx="336.586" cy="-217.447" rx="4.00002" ry="4.00002"/>
<polygon fill="#d39263" stroke="#d39263" points="392.869,-118.279 398.143,-108.665 393.263,-113.295 393.657,-108.31 393.657,-108.31 393.657,-108.31 393.263,-113.295 389.171,-107.956 392.869,-118.279 392.869,-118.279"/>
</g>
<!-- Registry -->
<g id="node9" class="node"><title>Registry</title>
<ellipse fill="none" stroke="black" cx="371" cy="-331" rx="43.1445" ry="18"/>
<text text-anchor="middle" x="371" y="-325.4" font-family="Times,serif" font-size="14.00">Registry</text>
</g>
<!-- Registry&#45;&gt;Project -->
<g id="edge11" class="edge"><title>Registry&#45;&gt;Project</title>
<path fill="none" stroke="#f0f50e" d="M354.711,-304.632C345.808,-290.766 334.823,-273.66 325.97,-259.872"/>
<polygon fill="#f0f50e" stroke="#f0f50e" points="354.971,-305.038 356.588,-315.884 357.673,-309.245 360.375,-313.452 360.375,-313.452 360.375,-313.452 357.673,-309.245 364.161,-311.021 354.971,-305.038 354.971,-305.038"/>
<polygon fill="#f0f50e" stroke="#f0f50e" points="325.907,-259.773 324.29,-248.927 323.205,-255.565 320.504,-251.358 320.504,-251.358 320.504,-251.358 323.205,-255.565 316.717,-253.79 325.907,-259.773 325.907,-259.773"/>
</g>
<!-- Registry&#45;&gt;Image -->
<g id="edge12" class="edge"><title>Registry&#45;&gt;Image</title>
<path fill="none" stroke="#0785b7" d="M376.273,-304.869C382.209,-275.194 391.481,-224.267 395,-180 396.268,-164.05 395.151,-159.999 395,-144 394.922,-135.682 394.774,-126.63 394.616,-118.4"/>
<ellipse fill="none" stroke="#0785b7" cx="375.417" cy="-309.089" rx="4.00001" ry="4.00001"/>
<polygon fill="#0785b7" stroke="#0785b7" points="394.611,-118.183 398.905,-108.092 394.509,-113.184 394.406,-108.185 394.406,-108.185 394.406,-108.185 394.509,-113.184 389.907,-108.277 394.611,-118.183 394.611,-118.183"/>
</g>
</g>
</svg>
