<?xml version="1.0" encoding="UTF-8" standalone="no"?>
<!DOCTYPE svg PUBLIC "-//W3C//DTD SVG 1.1//EN"
 "http://www.w3.org/Graphics/SVG/1.1/DTD/svg11.dtd">
<!-- Generated by graphviz version 2.30.1 (20130706.2129)
 -->
<!-- Title: models_diagram Pages: 1 -->
<svg width="546pt" height="1112pt"
 viewBox="0.00 0.00 546.00 1112.00" xmlns="http://www.w3.org/2000/svg" xmlns:xlink="http://www.w3.org/1999/xlink">
<g id="graph0" class="graph" transform="scale(1 1) rotate(0) translate(4 1108)">
<title>models_diagram</title>
<polygon fill="white" stroke="white" points="-4,5 -4,-1108 543,-1108 543,5 -4,5"/>
<!-- _diagram_info -->
<g id="node1" class="node"><title>_diagram_info</title>
<text text-anchor="start" x="48.5503" y="-1046" font-family="Times,serif" font-size="13.00">Models diagram</text>
<text text-anchor="start" x="48.5503" y="-1030.4" font-family="Times,serif" font-size="13.00">Date: Nov 25 2014 &#45; 13:35</text>
<text text-anchor="start" x="48.5503" y="-1014.8" font-family="Times,serif" font-size="13.00">Migration version: 20141023110623</text>
<text text-anchor="start" x="48.5503" y="-999.2" font-family="Times,serif" font-size="13.00">Generated by RailRoady 1.2.0</text>
<text text-anchor="start" x="48.5503" y="-983.6" font-family="Times,serif" font-size="13.00">http://railroady.prestonlee.com</text>
</g>
<!-- Background -->
<g id="node2" class="node"><title>Background</title>
<polygon fill="none" stroke="black" points="265.786,-995.2 265.786,-1044.8 350.214,-1044.8 350.214,-995.2 265.786,-995.2"/>
<text text-anchor="middle" x="308" y="-1026.8" font-family="Times,serif" font-size="14.00">Background</text>
<polyline fill="none" stroke="black" points="265.786,-1020 350.214,-1020 "/>
<text text-anchor="middle" x="308" y="-1002" font-family="Times,serif" font-size="14.00"> </text>
</g>
<!-- Component -->
<g id="node3" class="node"><title>Component</title>
<path fill="none" stroke="black" d="M313.495,-544.8C313.495,-544.8 422.505,-544.8 422.505,-544.8 428.505,-544.8 434.505,-550.8 434.505,-556.8 434.505,-556.8 434.505,-683.2 434.505,-683.2 434.505,-689.2 428.505,-695.2 422.505,-695.2 422.505,-695.2 313.495,-695.2 313.495,-695.2 307.495,-695.2 301.495,-689.2 301.495,-683.2 301.495,-683.2 301.495,-556.8 301.495,-556.8 301.495,-550.8 307.495,-544.8 313.495,-544.8"/>
<text text-anchor="middle" x="368" y="-677.2" font-family="Times,serif" font-size="14.00">Component</text>
<polyline fill="none" stroke="black" points="301.495,-670.4 434.505,-670.4 "/>
<text text-anchor="start" x="309.495" y="-652.4" font-family="Times,serif" font-size="14.00">id :integer</text>
<text text-anchor="start" x="309.495" y="-635.6" font-family="Times,serif" font-size="14.00">name :string</text>
<text text-anchor="start" x="309.495" y="-618.8" font-family="Times,serif" font-size="14.00">description :string</text>
<text text-anchor="start" x="309.495" y="-602" font-family="Times,serif" font-size="14.00">disabled :boolean</text>
<text text-anchor="start" x="309.495" y="-585.2" font-family="Times,serif" font-size="14.00">created_at :datetime</text>
<text text-anchor="start" x="309.495" y="-568.4" font-family="Times,serif" font-size="14.00">updated_at :datetime</text>
<text text-anchor="start" x="309.495" y="-551.6" font-family="Times,serif" font-size="14.00">project_id :integer</text>
</g>
<!-- Release -->
<g id="node10" class="node"><title>Release</title>
<path fill="none" stroke="black" d="M218.495,-331.4C218.495,-331.4 327.505,-331.4 327.505,-331.4 333.505,-331.4 339.505,-337.4 339.505,-343.4 339.505,-343.4 339.505,-486.6 339.505,-486.6 339.505,-492.6 333.505,-498.6 327.505,-498.6 327.505,-498.6 218.495,-498.6 218.495,-498.6 212.495,-498.6 206.495,-492.6 206.495,-486.6 206.495,-486.6 206.495,-343.4 206.495,-343.4 206.495,-337.4 212.495,-331.4 218.495,-331.4"/>
<text text-anchor="middle" x="273" y="-480.6" font-family="Times,serif" font-size="14.00">Release</text>
<polyline fill="none" stroke="black" points="206.495,-473.8 339.505,-473.8 "/>
<text text-anchor="start" x="214.495" y="-455.8" font-family="Times,serif" font-size="14.00">id :integer</text>
<text text-anchor="start" x="214.495" y="-439" font-family="Times,serif" font-size="14.00">name :string</text>
<text text-anchor="start" x="214.495" y="-422.2" font-family="Times,serif" font-size="14.00">description :string</text>
<text text-anchor="start" x="214.495" y="-405.4" font-family="Times,serif" font-size="14.00">label :string</text>
<text text-anchor="start" x="214.495" y="-388.6" font-family="Times,serif" font-size="14.00">created_at :datetime</text>
<text text-anchor="start" x="214.495" y="-371.8" font-family="Times,serif" font-size="14.00">updated_at :datetime</text>
<text text-anchor="start" x="214.495" y="-355" font-family="Times,serif" font-size="14.00">project_id :integer</text>
<text text-anchor="start" x="214.495" y="-338.2" font-family="Times,serif" font-size="14.00">state :integer</text>
</g>
<!-- Component&#45;&gt;Release -->
<g id="edge1" class="edge"><title>Component&#45;&gt;Release</title>
<path fill="none" stroke="#08715d" d="M328.862,-535.369C324.605,-526.272 320.256,-516.978 315.956,-507.79"/>
<polygon fill="#08715d" stroke="#08715d" points="328.926,-535.506 329.089,-546.47 331.046,-540.034 333.165,-544.563 333.165,-544.563 333.165,-544.563 331.046,-540.034 337.241,-542.656 328.926,-535.506 328.926,-535.506"/>
<polygon fill="#08715d" stroke="#08715d" points="315.917,-507.707 315.754,-496.743 313.798,-503.179 311.679,-498.65 311.679,-498.65 311.679,-498.65 313.798,-503.179 307.603,-500.558 315.917,-507.707 315.917,-507.707"/>
</g>
<!-- Image -->
<g id="node6" class="node"><title>Image</title>
<path fill="none" stroke="black" d="M407.822,-323C407.822,-323 526.178,-323 526.178,-323 532.178,-323 538.178,-329 538.178,-335 538.178,-335 538.178,-495 538.178,-495 538.178,-501 532.178,-507 526.178,-507 526.178,-507 407.822,-507 407.822,-507 401.822,-507 395.822,-501 395.822,-495 395.822,-495 395.822,-335 395.822,-335 395.822,-329 401.822,-323 407.822,-323"/>
<text text-anchor="middle" x="467" y="-489" font-family="Times,serif" font-size="14.00">Image</text>
<polyline fill="none" stroke="black" points="395.822,-482.2 538.178,-482.2 "/>
<text text-anchor="start" x="403.822" y="-464.2" font-family="Times,serif" font-size="14.00">id :integer</text>
<text text-anchor="start" x="403.822" y="-447.4" font-family="Times,serif" font-size="14.00">name :string</text>
<text text-anchor="start" x="403.822" y="-430.6" font-family="Times,serif" font-size="14.00">disabled :boolean</text>
<text text-anchor="start" x="403.822" y="-413.8" font-family="Times,serif" font-size="14.00">registry_id :integer</text>
<text text-anchor="start" x="403.822" y="-397" font-family="Times,serif" font-size="14.00">project_id :integer</text>
<text text-anchor="start" x="403.822" y="-380.2" font-family="Times,serif" font-size="14.00">release_id :integer</text>
<text text-anchor="start" x="403.822" y="-363.4" font-family="Times,serif" font-size="14.00">component_id :integer</text>
<text text-anchor="start" x="403.822" y="-346.6" font-family="Times,serif" font-size="14.00">created_at :datetime</text>
<text text-anchor="start" x="403.822" y="-329.8" font-family="Times,serif" font-size="14.00">updated_at :datetime</text>
</g>
<!-- Component&#45;&gt;Image -->
<g id="edge2" class="edge"><title>Component&#45;&gt;Image</title>
<path fill="none" stroke="#6da40d" d="M407.93,-537.123C411.217,-530.383 414.562,-523.524 417.905,-516.669"/>
<ellipse fill="none" stroke="#6da40d" cx="406.055" cy="-540.968" rx="4.00002" ry="4.00002"/>
<polygon fill="#6da40d" stroke="#6da40d" points="418.073,-516.326 426.501,-509.31 420.264,-511.831 422.456,-507.337 422.456,-507.337 422.456,-507.337 420.264,-511.831 418.411,-505.365 418.073,-516.326 418.073,-516.326"/>
</g>
<!-- Instance -->
<g id="node7" class="node"><title>Instance</title>
<path fill="none" stroke="black" d="M114.546,-0.6C114.546,-0.6 241.454,-0.6 241.454,-0.6 247.454,-0.6 253.454,-6.6 253.454,-12.6 253.454,-12.6 253.454,-273.4 253.454,-273.4 253.454,-279.4 247.454,-285.4 241.454,-285.4 241.454,-285.4 114.546,-285.4 114.546,-285.4 108.546,-285.4 102.546,-279.4 102.546,-273.4 102.546,-273.4 102.546,-12.6 102.546,-12.6 102.546,-6.6 108.546,-0.6 114.546,-0.6"/>
<text text-anchor="middle" x="178" y="-267.4" font-family="Times,serif" font-size="14.00">Instance</text>
<polyline fill="none" stroke="black" points="102.546,-260.6 253.454,-260.6 "/>
<text text-anchor="start" x="110.546" y="-242.6" font-family="Times,serif" font-size="14.00">id :integer</text>
<text text-anchor="start" x="110.546" y="-225.8" font-family="Times,serif" font-size="14.00">name :string</text>
<text text-anchor="start" x="110.546" y="-209" font-family="Times,serif" font-size="14.00">disabled :boolean</text>
<text text-anchor="start" x="110.546" y="-192.2" font-family="Times,serif" font-size="14.00">public_port :integer</text>
<text text-anchor="start" x="110.546" y="-175.4" font-family="Times,serif" font-size="14.00">container :string</text>
<text text-anchor="start" x="110.546" y="-158.6" font-family="Times,serif" font-size="14.00">properties :text</text>
<text text-anchor="start" x="110.546" y="-141.8" font-family="Times,serif" font-size="14.00">image_id :integer</text>
<text text-anchor="start" x="110.546" y="-125" font-family="Times,serif" font-size="14.00">component_id :integer</text>
<text text-anchor="start" x="110.546" y="-108.2" font-family="Times,serif" font-size="14.00">host_id :integer</text>
<text text-anchor="start" x="110.546" y="-91.4" font-family="Times,serif" font-size="14.00">created_at :datetime</text>
<text text-anchor="start" x="110.546" y="-74.6" font-family="Times,serif" font-size="14.00">updated_at :datetime</text>
<text text-anchor="start" x="110.546" y="-57.8" font-family="Times,serif" font-size="14.00">state :integer</text>
<text text-anchor="start" x="110.546" y="-41" font-family="Times,serif" font-size="14.00">environment_id :integer</text>
<text text-anchor="start" x="110.546" y="-24.2" font-family="Times,serif" font-size="14.00">private_port :integer</text>
<text text-anchor="start" x="110.546" y="-7.4" font-family="Times,serif" font-size="14.00">options :text</text>
</g>
<!-- Component&#45;&gt;Instance -->
<g id="edge3" class="edge"><title>Component&#45;&gt;Instance</title>
<path fill="none" stroke="#de77e8" d="M377.137,-536.425C380.547,-474.754 377.85,-389.783 348,-322 328.786,-278.37 294.033,-238.963 260.934,-208.383"/>
<ellipse fill="none" stroke="#de77e8" cx="376.884" cy="-540.594" rx="4" ry="4"/>
<polygon fill="#de77e8" stroke="#de77e8" points="260.864,-208.32 256.485,-198.267 257.162,-204.959 253.46,-201.599 253.46,-201.599 253.46,-201.599 257.162,-204.959 250.435,-204.93 260.864,-208.32 260.864,-208.32"/>
</g>
<!-- Environment -->
<g id="node4" class="node"><title>Environment</title>
<path fill="none" stroke="black" d="M123.495,-553.2C123.495,-553.2 232.505,-553.2 232.505,-553.2 238.505,-553.2 244.505,-559.2 244.505,-565.2 244.505,-565.2 244.505,-674.8 244.505,-674.8 244.505,-680.8 238.505,-686.8 232.505,-686.8 232.505,-686.8 123.495,-686.8 123.495,-686.8 117.495,-686.8 111.495,-680.8 111.495,-674.8 111.495,-674.8 111.495,-565.2 111.495,-565.2 111.495,-559.2 117.495,-553.2 123.495,-553.2"/>
<text text-anchor="middle" x="178" y="-668.8" font-family="Times,serif" font-size="14.00">Environment</text>
<polyline fill="none" stroke="black" points="111.495,-662 244.505,-662 "/>
<text text-anchor="start" x="119.495" y="-644" font-family="Times,serif" font-size="14.00">id :integer</text>
<text text-anchor="start" x="119.495" y="-627.2" font-family="Times,serif" font-size="14.00">name :string</text>
<text text-anchor="start" x="119.495" y="-610.4" font-family="Times,serif" font-size="14.00">project_id :integer</text>
<text text-anchor="start" x="119.495" y="-593.6" font-family="Times,serif" font-size="14.00">release_id :integer</text>
<text text-anchor="start" x="119.495" y="-576.8" font-family="Times,serif" font-size="14.00">created_at :datetime</text>
<text text-anchor="start" x="119.495" y="-560" font-family="Times,serif" font-size="14.00">updated_at :datetime</text>
</g>
<!-- Host -->
<g id="node5" class="node"><title>Host</title>
<path fill="none" stroke="black" d="M11.5464,-323C11.5464,-323 138.454,-323 138.454,-323 144.454,-323 150.454,-329 150.454,-335 150.454,-335 150.454,-495 150.454,-495 150.454,-501 144.454,-507 138.454,-507 138.454,-507 11.5464,-507 11.5464,-507 5.54639,-507 -0.453613,-501 -0.453613,-495 -0.453613,-495 -0.453613,-335 -0.453613,-335 -0.453613,-329 5.54639,-323 11.5464,-323"/>
<text text-anchor="middle" x="75" y="-489" font-family="Times,serif" font-size="14.00">Host</text>
<polyline fill="none" stroke="black" points="-0.453613,-482.2 150.454,-482.2 "/>
<text text-anchor="start" x="7.54639" y="-464.2" font-family="Times,serif" font-size="14.00">id :integer</text>
<text text-anchor="start" x="7.54639" y="-447.4" font-family="Times,serif" font-size="14.00">name :string</text>
<text text-anchor="start" x="7.54639" y="-430.6" font-family="Times,serif" font-size="14.00">description :string</text>
<text text-anchor="start" x="7.54639" y="-413.8" font-family="Times,serif" font-size="14.00">url :string</text>
<text text-anchor="start" x="7.54639" y="-397" font-family="Times,serif" font-size="14.00">disabled :boolean</text>
<text text-anchor="start" x="7.54639" y="-380.2" font-family="Times,serif" font-size="14.00">info :text</text>
<text text-anchor="start" x="7.54639" y="-363.4" font-family="Times,serif" font-size="14.00">created_at :datetime</text>
<text text-anchor="start" x="7.54639" y="-346.6" font-family="Times,serif" font-size="14.00">updated_at :datetime</text>
<text text-anchor="start" x="7.54639" y="-329.8" font-family="Times,serif" font-size="14.00">environment_id :integer</text>
</g>
<!-- Environment&#45;&gt;Host -->
<g id="edge4" class="edge"><title>Environment&#45;&gt;Host</title>
<path fill="none" stroke="#00dec3" d="M140.844,-545.77C135.96,-536.145 130.89,-526.152 125.829,-516.177"/>
<ellipse fill="none" stroke="#00dec3" cx="142.749" cy="-549.525" rx="4.00002" ry="4.00002"/>
<polygon fill="#00dec3" stroke="#00dec3" points="125.713,-515.949 125.201,-504.995 123.451,-511.49 121.188,-507.031 121.188,-507.031 121.188,-507.031 123.451,-511.49 117.175,-509.067 125.713,-515.949 125.713,-515.949"/>
</g>
<!-- Environment&#45;&gt;Instance -->
<g id="edge5" class="edge"><title>Environment&#45;&gt;Instance</title>
<path fill="none" stroke="#e4e335" d="M178,-544.703C178,-478.268 178,-378.842 178,-295.652"/>
<ellipse fill="none" stroke="#e4e335" cx="178" cy="-548.953" rx="4" ry="4"/>
<polygon fill="#e4e335" stroke="#e4e335" points="178,-295.591 182.5,-285.591 178,-290.591 178,-285.591 178,-285.591 178,-285.591 178,-290.591 173.5,-285.591 178,-295.591 178,-295.591"/>
</g>
<!-- Host&#45;&gt;Instance -->
<g id="edge6" class="edge"><title>Host&#45;&gt;Instance</title>
<path fill="none" stroke="#b76365" d="M112.672,-315.247C115.217,-308.576 117.811,-301.777 120.426,-294.923"/>
<ellipse fill="none" stroke="#b76365" cx="111.153" cy="-319.229" rx="4.00001" ry="4.00001"/>
<polygon fill="#b76365" stroke="#b76365" points="120.437,-294.892 128.206,-287.153 122.219,-290.221 124.002,-285.549 124.002,-285.549 124.002,-285.549 122.219,-290.221 119.797,-283.945 120.437,-294.892 120.437,-294.892"/>
</g>
<!-- Project -->
<g id="node8" class="node"><title>Project</title>
<path fill="none" stroke="black" d="M313.495,-732.4C313.495,-732.4 422.505,-732.4 422.505,-732.4 428.505,-732.4 434.505,-738.4 434.505,-744.4 434.505,-744.4 434.505,-887.6 434.505,-887.6 434.505,-893.6 428.505,-899.6 422.505,-899.6 422.505,-899.6 313.495,-899.6 313.495,-899.6 307.495,-899.6 301.495,-893.6 301.495,-887.6 301.495,-887.6 301.495,-744.4 301.495,-744.4 301.495,-738.4 307.495,-732.4 313.495,-732.4"/>
<text text-anchor="middle" x="368" y="-881.6" font-family="Times,serif" font-size="14.00">Project</text>
<polyline fill="none" stroke="black" points="301.495,-874.8 434.505,-874.8 "/>
<text text-anchor="start" x="309.495" y="-856.8" font-family="Times,serif" font-size="14.00">id :integer</text>
<text text-anchor="start" x="309.495" y="-840" font-family="Times,serif" font-size="14.00">name :string</text>
<text text-anchor="start" x="309.495" y="-823.2" font-family="Times,serif" font-size="14.00">description :string</text>
<text text-anchor="start" x="309.495" y="-806.4" font-family="Times,serif" font-size="14.00">label :string</text>
<text text-anchor="start" x="309.495" y="-789.6" font-family="Times,serif" font-size="14.00">visible :boolean</text>
<text text-anchor="start" x="309.495" y="-772.8" font-family="Times,serif" font-size="14.00">disabled :boolean</text>
<text text-anchor="start" x="309.495" y="-756" font-family="Times,serif" font-size="14.00">created_at :datetime</text>
<text text-anchor="start" x="309.495" y="-739.2" font-family="Times,serif" font-size="14.00">updated_at :datetime</text>
</g>
<!-- Project&#45;&gt;Environment -->
<g id="edge7" class="edge"><title>Project&#45;&gt;Environment</title>
<path fill="none" stroke="#d77266" d="M295.433,-740.905C280.504,-725.662 264.791,-709.618 249.886,-694.4"/>
<ellipse fill="none" stroke="#d77266" cx="298.481" cy="-744.018" rx="4.00002" ry="4.00002"/>
<polygon fill="#d77266" stroke="#d77266" points="249.638,-694.146 245.856,-683.853 246.14,-690.574 242.641,-687.002 242.641,-687.002 242.641,-687.002 246.14,-690.574 239.426,-690.151 249.638,-694.146 249.638,-694.146"/>
</g>
<!-- Project&#45;&gt;Release -->
<g id="edge8" class="edge"><title>Project&#45;&gt;Release</title>
<path fill="none" stroke="#ba24cc" d="M304.159,-724.948C299.396,-715.477 295.207,-705.741 292,-696 272.17,-635.768 267.592,-564.409 267.883,-508.804"/>
<ellipse fill="none" stroke="#ba24cc" cx="306.058" cy="-728.588" rx="4.00002" ry="4.00002"/>
<polygon fill="#ba24cc" stroke="#ba24cc" points="267.885,-508.611 272.491,-498.659 267.938,-503.611 267.992,-498.611 267.992,-498.611 267.992,-498.611 267.938,-503.611 263.492,-498.563 267.885,-508.611 267.885,-508.611"/>
</g>
<!-- Project&#45;&gt;Component -->
<g id="edge9" class="edge"><title>Project&#45;&gt;Component</title>
<path fill="none" stroke="#d5c567" d="M368,-724.085C368,-717.904 368,-711.689 368,-705.542"/>
<ellipse fill="none" stroke="#d5c567" cx="368" cy="-728.164" rx="4" ry="4"/>
<polygon fill="#d5c567" stroke="#d5c567" points="368,-705.278 372.5,-695.278 368,-700.278 368,-695.278 368,-695.278 368,-695.278 368,-700.278 363.5,-695.279 368,-705.278 368,-705.278"/>
</g>
<!-- Project&#45;&gt;Image -->
<g id="edge10" class="edge"><title>Project&#45;&gt;Image</title>
<path fill="none" stroke="#307854" d="M430.682,-725.1C435.476,-715.568 439.717,-705.777 443,-696 462.185,-638.861 468.443,-571.665 469.782,-517.424"/>
<ellipse fill="none" stroke="#307854" cx="428.763" cy="-728.787" rx="4.00002" ry="4.00002"/>
<polygon fill="#307854" stroke="#307854" points="469.788,-517.102 474.481,-507.191 469.885,-512.103 469.982,-507.104 469.982,-507.104 469.982,-507.104 469.885,-512.103 465.483,-507.017 469.788,-517.102 469.788,-517.102"/>
</g>
<!-- Registry -->
<g id="node9" class="node"><title>Registry</title>
<path fill="none" stroke="black" d="M380.495,-936.4C380.495,-936.4 489.505,-936.4 489.505,-936.4 495.505,-936.4 501.505,-942.4 501.505,-948.4 501.505,-948.4 501.505,-1091.6 501.505,-1091.6 501.505,-1097.6 495.505,-1103.6 489.505,-1103.6 489.505,-1103.6 380.495,-1103.6 380.495,-1103.6 374.495,-1103.6 368.495,-1097.6 368.495,-1091.6 368.495,-1091.6 368.495,-948.4 368.495,-948.4 368.495,-942.4 374.495,-936.4 380.495,-936.4"/>
<text text-anchor="middle" x="435" y="-1085.6" font-family="Times,serif" font-size="14.00">Registry</text>
<polyline fill="none" stroke="black" points="368.495,-1078.8 501.505,-1078.8 "/>
<text text-anchor="start" x="376.495" y="-1060.8" font-family="Times,serif" font-size="14.00">id :integer</text>
<text text-anchor="start" x="376.495" y="-1044" font-family="Times,serif" font-size="14.00">name :string</text>
<text text-anchor="start" x="376.495" y="-1027.2" font-family="Times,serif" font-size="14.00">description :string</text>
<text text-anchor="start" x="376.495" y="-1010.4" font-family="Times,serif" font-size="14.00">url :string</text>
<text text-anchor="start" x="376.495" y="-993.6" font-family="Times,serif" font-size="14.00">disabled :boolean</text>
<text text-anchor="start" x="376.495" y="-976.8" font-family="Times,serif" font-size="14.00">info :text</text>
<text text-anchor="start" x="376.495" y="-960" font-family="Times,serif" font-size="14.00">created_at :datetime</text>
<text text-anchor="start" x="376.495" y="-943.2" font-family="Times,serif" font-size="14.00">updated_at :datetime</text>
</g>
<!-- Registry&#45;&gt;Project -->
<g id="edge11" class="edge"><title>Registry&#45;&gt;Project</title>
<path fill="none" stroke="#7c2d7c" d="M404.338,-926.556C402.429,-920.8 400.507,-915.006 398.598,-909.251"/>
<polygon fill="#7c2d7c" stroke="#7c2d7c" points="404.407,-926.765 403.284,-937.673 405.981,-931.51 407.555,-936.256 407.555,-936.256 407.555,-936.256 405.981,-931.51 411.826,-934.839 404.407,-926.765 404.407,-926.765"/>
<polygon fill="#7c2d7c" stroke="#7c2d7c" points="398.55,-909.107 399.673,-898.199 396.976,-904.361 395.402,-899.615 395.402,-899.615 395.402,-899.615 396.976,-904.361 391.131,-901.032 398.55,-909.107 398.55,-909.107"/>
</g>
<!-- Registry&#45;&gt;Image -->
<g id="edge12" class="edge"><title>Registry&#45;&gt;Image</title>
<path fill="none" stroke="#32ad43" d="M447.148,-928.053C455.147,-863.446 464.876,-774.569 469,-696 472.541,-628.537 469.528,-611.553 469,-544 468.933,-535.361 468.839,-526.395 468.73,-517.399"/>
<ellipse fill="none" stroke="#32ad43" cx="446.627" cy="-932.238" rx="4.00001" ry="4.00001"/>
<polygon fill="#32ad43" stroke="#32ad43" points="468.728,-517.246 473.1,-507.189 468.664,-512.246 468.6,-507.247 468.6,-507.247 468.6,-507.247 468.664,-512.246 464.1,-507.304 468.728,-517.246 468.728,-517.246"/>
</g>
</g>
</svg>
