<?xml version="1.0" encoding="UTF-8" standalone="no"?>
<!DOCTYPE svg PUBLIC "-//W3C//DTD SVG 1.1//EN"
 "http://www.w3.org/Graphics/SVG/1.1/DTD/svg11.dtd">
<!-- Generated by graphviz version 2.30.1 (20130706.2129)
 -->
<!-- Title: models_diagram Pages: 1 -->
<svg width="533pt" height="454pt"
 viewBox="0.00 0.00 533.26 454.00" xmlns="http://www.w3.org/2000/svg" xmlns:xlink="http://www.w3.org/1999/xlink">
<g id="graph0" class="graph" transform="scale(1 1) rotate(0) translate(4 450)">
<title>models_diagram</title>
<polygon fill="white" stroke="white" points="-4,5 -4,-450 530.259,-450 530.259,5 -4,5"/>
<!-- _diagram_info -->
<g id="node1" class="node"><title>_diagram_info</title>
<text text-anchor="start" x="7.55029" y="-429" font-family="Times,serif" font-size="13.00">Models diagram</text>
<text text-anchor="start" x="7.55029" y="-413.4" font-family="Times,serif" font-size="13.00">Date: Oct 29 2014 &#45; 18:36</text>
<text text-anchor="start" x="7.55029" y="-397.8" font-family="Times,serif" font-size="13.00">Migration version: 20141023110623</text>
<text text-anchor="start" x="7.55029" y="-382.2" font-family="Times,serif" font-size="13.00">Generated by RailRoady 1.1.2</text>
<text text-anchor="start" x="7.55029" y="-366.6" font-family="Times,serif" font-size="13.00">http://railroady.prestonlee.com</text>
</g>
<!-- Component -->
<g id="node2" class="node"><title>Component</title>
<ellipse fill="none" stroke="black" cx="365" cy="-162" rx="56.1511" ry="18"/>
<text text-anchor="middle" x="365" y="-156.4" font-family="Times,serif" font-size="14.00">Component</text>
</g>
<!-- Release -->
<g id="node9" class="node"><title>Release</title>
<ellipse fill="none" stroke="black" cx="449" cy="-90" rx="41.0954" ry="18"/>
<text text-anchor="middle" x="449" y="-84.4" font-family="Times,serif" font-size="14.00">Release</text>
</g>
<!-- Component&#45;&gt;Release -->
<g id="edge1" class="edge"><title>Component&#45;&gt;Release</title>
<path fill="none" stroke="#5fd03a" d="M392.407,-138.161C402.236,-129.97 413.283,-120.764 422.99,-112.675"/>
<polygon fill="#5fd03a" stroke="#5fd03a" points="392.165,-138.363 381.602,-141.308 388.324,-141.564 384.482,-144.765 384.482,-144.765 384.482,-144.765 388.324,-141.564 387.363,-148.222 392.165,-138.363 392.165,-138.363"/>
<polygon fill="#5fd03a" stroke="#5fd03a" points="423.091,-112.591 433.654,-109.646 426.932,-109.39 430.773,-106.189 430.773,-106.189 430.773,-106.189 426.932,-109.39 427.892,-102.732 423.091,-112.591 423.091,-112.591"/>
</g>
<!-- Image -->
<g id="node5" class="node"><title>Image</title>
<ellipse fill="none" stroke="black" cx="258" cy="-90" rx="35.2475" ry="18"/>
<text text-anchor="middle" x="258" y="-84.4" font-family="Times,serif" font-size="14.00">Image</text>
</g>
<!-- Component&#45;&gt;Image -->
<g id="edge2" class="edge"><title>Component&#45;&gt;Image</title>
<path fill="none" stroke="#2635cb" d="M334.67,-141.158C319.91,-131.502 302.235,-119.939 287.576,-110.349"/>
<ellipse fill="none" stroke="#2635cb" cx="338.171" cy="-143.448" rx="4.00002" ry="4.00002"/>
<polygon fill="#2635cb" stroke="#2635cb" points="287.261,-110.143 281.356,-100.902 283.077,-107.405 278.893,-104.668 278.893,-104.668 278.893,-104.668 283.077,-107.405 276.429,-108.434 287.261,-110.143 287.261,-110.143"/>
</g>
<!-- Instance -->
<g id="node6" class="node"><title>Instance</title>
<ellipse fill="none" stroke="black" cx="255" cy="-18" rx="43.3141" ry="18"/>
<text text-anchor="middle" x="255" y="-12.4" font-family="Times,serif" font-size="14.00">Instance</text>
</g>
<!-- Component&#45;&gt;Instance -->
<g id="edge3" class="edge"><title>Component&#45;&gt;Instance</title>
<path fill="none" stroke="#27c9c0" d="M349.305,-137.359C336.953,-119.122 319.036,-93.4708 302,-72 294.196,-62.1642 285.141,-51.7442 277.075,-42.7702"/>
<ellipse fill="none" stroke="#27c9c0" cx="351.68" cy="-140.884" rx="4.00002" ry="4.00002"/>
<polygon fill="#27c9c0" stroke="#27c9c0" points="277.02,-42.7099 273.628,-32.2818 273.658,-39.0086 270.297,-35.3073 270.297,-35.3073 270.297,-35.3073 273.658,-39.0086 266.966,-38.3328 277.02,-42.7099 277.02,-42.7099"/>
</g>
<!-- Environment -->
<g id="node3" class="node"><title>Environment</title>
<ellipse fill="none" stroke="black" cx="116" cy="-162" rx="61.1861" ry="18"/>
<text text-anchor="middle" x="116" y="-156.4" font-family="Times,serif" font-size="14.00">Environment</text>
</g>
<!-- Host -->
<g id="node4" class="node"><title>Host</title>
<ellipse fill="none" stroke="black" cx="116" cy="-90" rx="28.9227" ry="18"/>
<text text-anchor="middle" x="116" y="-84.4" font-family="Times,serif" font-size="14.00">Host</text>
</g>
<!-- Environment&#45;&gt;Host -->
<g id="edge5" class="edge"><title>Environment&#45;&gt;Host</title>
<path fill="none" stroke="#327b98" d="M116,-135.64C116,-130.063 116,-124.132 116,-118.476"/>
<ellipse fill="none" stroke="#327b98" cx="116" cy="-139.697" rx="4" ry="4"/>
<polygon fill="#327b98" stroke="#327b98" points="116,-118.104 120.5,-108.104 116,-113.104 116,-108.104 116,-108.104 116,-108.104 116,-113.104 111.5,-108.104 116,-118.104 116,-118.104"/>
</g>
<!-- Environment&#45;&gt;Instance -->
<g id="edge6" class="edge"><title>Environment&#45;&gt;Instance</title>
<path fill="none" stroke="#e6a606" d="M137.919,-138.608C163.607,-112.365 205.977,-69.0811 232.087,-42.4073"/>
<ellipse fill="none" stroke="#e6a606" cx="135.015" cy="-141.574" rx="4.00002" ry="4.00002"/>
<polygon fill="#e6a606" stroke="#e6a606" points="232.317,-42.1723 242.528,-38.1739 235.815,-38.5992 239.313,-35.0261 239.313,-35.0261 239.313,-35.0261 235.815,-38.5992 236.097,-31.8782 232.317,-42.1723 232.317,-42.1723"/>
</g>
<!-- Host&#45;&gt;Instance -->
<g id="edge8" class="edge"><title>Host&#45;&gt;Instance</title>
<path fill="none" stroke="#abaa32" d="M145.289,-74.2503C166.852,-63.3909 196.289,-48.5667 219.242,-37.0075"/>
<ellipse fill="none" stroke="#abaa32" cx="141.598" cy="-76.1091" rx="4.00002" ry="4.00002"/>
<polygon fill="#abaa32" stroke="#abaa32" points="219.391,-36.9324 230.347,-36.4537 223.857,-34.6835 228.323,-32.4346 228.323,-32.4346 228.323,-32.4346 223.857,-34.6835 226.299,-28.4154 219.391,-36.9324 219.391,-36.9324"/>
</g>
<!-- Project -->
<g id="node7" class="node"><title>Project</title>
<ellipse fill="none" stroke="black" cx="315" cy="-234" rx="38.0859" ry="18"/>
<text text-anchor="middle" x="315" y="-228.4" font-family="Times,serif" font-size="14.00">Project</text>
</g>
<!-- Project&#45;&gt;Environment -->
<g id="edge12" class="edge"><title>Project&#45;&gt;Environment</title>
<path fill="none" stroke="#272614" d="M277.492,-219.806C245.145,-208.428 198.268,-191.939 163.344,-179.654"/>
<ellipse fill="none" stroke="#272614" cx="281.434" cy="-221.193" rx="4.00001" ry="4.00001"/>
<polygon fill="#272614" stroke="#272614" points="163.265,-179.626 155.325,-172.063 158.549,-177.967 153.832,-176.308 153.832,-176.308 153.832,-176.308 158.549,-177.967 152.339,-180.553 163.265,-179.626 163.265,-179.626"/>
</g>
<!-- Project&#45;&gt;Release -->
<g id="edge13" class="edge"><title>Project&#45;&gt;Release</title>
<path fill="none" stroke="#f3be95" d="M357.194,-223.647C381.983,-215.992 411.91,-202.617 430,-180 443.841,-162.695 448.219,-137.637 449.348,-118.517"/>
<ellipse fill="none" stroke="#f3be95" cx="353.187" cy="-224.816" rx="4.00001" ry="4.00001"/>
<polygon fill="#f3be95" stroke="#f3be95" points="449.355,-118.315 454.181,-108.468 449.519,-113.317 449.683,-108.32 449.683,-108.32 449.683,-108.32 449.519,-113.317 445.186,-108.172 449.355,-118.315 449.355,-118.315"/>
</g>
<!-- Project&#45;&gt;Component -->
<g id="edge14" class="edge"><title>Project&#45;&gt;Component</title>
<path fill="none" stroke="#b000cb" d="M331.313,-210.161C336.423,-203.008 342.085,-195.081 347.286,-187.8"/>
<ellipse fill="none" stroke="#b000cb" cx="328.922" cy="-213.51" rx="4.00002" ry="4.00002"/>
<polygon fill="#b000cb" stroke="#b000cb" points="347.307,-187.771 356.781,-182.249 350.213,-183.702 353.119,-179.633 353.119,-179.633 353.119,-179.633 350.213,-183.702 349.457,-177.018 347.307,-187.771 347.307,-187.771"/>
</g>
<!-- Project&#45;&gt;Image -->
<g id="edge15" class="edge"><title>Project&#45;&gt;Image</title>
<path fill="none" stroke="#d03ced" d="M305.188,-208.557C294.995,-183.163 279.097,-143.558 268.615,-117.446"/>
<ellipse fill="none" stroke="#d03ced" cx="306.747" cy="-212.441" rx="4.00001" ry="4.00001"/>
<polygon fill="#d03ced" stroke="#d03ced" points="268.479,-117.105 268.93,-106.149 266.616,-112.465 264.754,-107.825 264.754,-107.825 264.754,-107.825 266.616,-112.465 260.578,-109.501 268.479,-117.105 268.479,-117.105"/>
</g>
<!-- Registry -->
<g id="node8" class="node"><title>Registry</title>
<ellipse fill="none" stroke="black" cx="277" cy="-306" rx="43.1445" ry="18"/>
<text text-anchor="middle" x="277" y="-300.4" font-family="Times,serif" font-size="14.00">Registry</text>
</g>
<!-- Registry&#45;&gt;Project -->
<g id="edge17" class="edge"><title>Registry&#45;&gt;Project</title>
<path fill="none" stroke="#937de3" d="M291.113,-279.002C294.355,-273.031 297.8,-266.685 301.035,-260.726"/>
<polygon fill="#937de3" stroke="#937de3" points="290.97,-279.266 282.244,-285.908 288.584,-283.661 286.199,-288.055 286.199,-288.055 286.199,-288.055 288.584,-283.661 290.154,-290.202 290.97,-279.266 290.97,-279.266"/>
<polygon fill="#937de3" stroke="#937de3" points="301.115,-260.578 309.841,-253.936 303.5,-256.183 305.886,-251.789 305.886,-251.789 305.886,-251.789 303.5,-256.183 301.931,-249.642 301.115,-260.578 301.115,-260.578"/>
</g>
<!-- Registry&#45;&gt;Image -->
<g id="edge18" class="edge"><title>Registry&#45;&gt;Image</title>
<path fill="none" stroke="#a62692" d="M272.172,-279.875C270.632,-271.086 269.056,-261.134 268,-252 262.619,-205.464 260,-151.002 258.832,-118.841"/>
<ellipse fill="none" stroke="#a62692" cx="272.907" cy="-283.944" rx="4.00001" ry="4.00001"/>
<polygon fill="#a62692" stroke="#a62692" points="258.818,-118.44 262.974,-108.292 258.647,-113.443 258.477,-108.446 258.477,-108.446 258.477,-108.446 258.647,-113.443 253.979,-108.599 258.818,-118.44 258.818,-118.44"/>
</g>
<!-- ActiveRecord::Base -->
<g id="node10" class="node"><title>ActiveRecord::Base</title>
<ellipse fill="none" stroke="black" cx="313" cy="-403" rx="88.2033" ry="18"/>
<text text-anchor="middle" x="313" y="-397.4" font-family="Times,serif" font-size="14.00">ActiveRecord::Base</text>
</g>
<!-- ActiveRecord::Base&#45;&gt;Component -->
<g id="edge4" class="edge"><title>ActiveRecord::Base&#45;&gt;Component</title>
<path fill="none" stroke="black" d="M320.709,-384.914C332.566,-357.544 354.674,-301.873 362,-252 365.64,-227.22 365.874,-198.162 365.556,-180.164"/>
</g>
<!-- ActiveRecord::Base&#45;&gt;Environment -->
<g id="edge7" class="edge"><title>ActiveRecord::Base&#45;&gt;Environment</title>
<path fill="none" stroke="black" d="M277.897,-386.333C251.206,-372.958 215.09,-351.525 191,-324 152.212,-279.681 129.554,-211.873 120.548,-180.296"/>
</g>
<!-- ActiveRecord::Base&#45;&gt;Host -->
<g id="edge9" class="edge"><title>ActiveRecord::Base&#45;&gt;Host</title>
<path fill="none" stroke="black" d="M273.735,-386.859C241.846,-373.378 196.783,-351.543 163,-324 99.0876,-271.892 73.5901,-257.71 46,-180 40.6467,-164.922 38.8772,-158.327 46,-144 55.7717,-124.345 76.6987,-110.032 93.1394,-101.271"/>
</g>
<!-- ActiveRecord::Base&#45;&gt;Image -->
<g id="edge10" class="edge"><title>ActiveRecord::Base&#45;&gt;Image</title>
<path fill="none" stroke="black" d="M283.814,-385.748C262.848,-372.258 236.215,-350.947 224,-324 189.908,-248.789 230.786,-147.2 249.549,-107.689"/>
</g>
<!-- ActiveRecord::Base&#45;&gt;Instance -->
<g id="edge11" class="edge"><title>ActiveRecord::Base&#45;&gt;Instance</title>
<path fill="none" stroke="black" d="M361.106,-387.798C423.655,-366.017 525,-317.931 525,-235 525,-235 525,-235 525,-161 525,-119.791 529.146,-100.097 499,-72 470.064,-45.0305 358.38,-29.5783 296.635,-22.9285"/>
</g>
<!-- ActiveRecord::Base&#45;&gt;Project -->
<g id="edge16" class="edge"><title>ActiveRecord::Base&#45;&gt;Project</title>
<path fill="none" stroke="black" d="M318.251,-385.018C324.477,-362.757 333.478,-322.486 329,-288 327.407,-275.731 323.822,-262.255 320.678,-251.962"/>
</g>
<!-- ActiveRecord::Base&#45;&gt;Registry -->
<g id="edge19" class="edge"><title>ActiveRecord::Base&#45;&gt;Registry</title>
<path fill="none" stroke="black" d="M306.564,-385.016C300.011,-367.724 289.913,-341.076 283.38,-323.837"/>
</g>
<!-- ActiveRecord::Base&#45;&gt;Release -->
<g id="edge20" class="edge"><title>ActiveRecord::Base&#45;&gt;Release</title>
<path fill="none" stroke="black" d="M328.218,-385.242C358.814,-350.268 426.909,-265.623 451,-180 457.823,-155.75 455.147,-126.299 452.302,-108.102"/>
</g>
</g>
</svg>
